# xmcd
#
# Track frame offsets:
# 150
# 16069
# 33387
# 50029
# 66608
# 88175
# 110427
# 127682
# 152514
# 169225
# 190638
# 219299
#
# Disc length: 3157 seconds
#
#
# Revision: 0
# Processed by: cddbd v1.5.2PL0 Copyright (c) Steve Scherf et al.
# Submitted via: FreeRIP 2.951 
#
DISCID=9a0c530c
DTITLE=pet shop boys yes - yes
DYEAR=2009
DGENRE=Electronic
TTITLE0=love etc
TTITLE1=all over the world
TTITLE2=beatiful people
TTITLE3=did you see me coming?
TTITLE4=vulnerable
TTITLE5=more than a dream
TTITLE6=building a wall
TTITLE7=king of rome
TTITLE8=pandemonium
TTITLE9=the way it used to be
TTITLE10=legacy
TTITLE11=extra
EXTD=
EXTT0=
EXTT1=
EXTT2=
EXTT3=
EXTT4=
EXTT5=
EXTT6=
EXTT7=
EXTT8=
EXTT9=
EXTT10=
EXTT11=
PLAYORDER=
